<svg id="Layer_1" data-name="Layer 1" xmlns="http://www.w3.org/2000/svg" viewBox="0 0 906.82 208.62"><title>FB-BannerLogotipo Preto Sem Margem</title><g id="Logotipo_Preto" data-name="Logotipo Preto"><path d="M13,19.24H5.39L3.84,23.5H0L7.16,4.84h4.21l7.1,18.66H14.53ZM6.61,15.92h5.15l-2.58-7Z"/><path d="M35.31,10.29a3.17,3.17,0,0,0-3.39-2.63C30.16,7.66,29,8.79,29,10a2.15,2.15,0,0,0,2,2.1l2.61.5c3.39.66,5.21,2.87,5.21,5.5,0,2.87-2.39,5.76-6.74,5.76-4.94,0-7.13-3.18-7.42-5.84l3.37-.89a3.75,3.75,0,0,0,4.08,3.5c1.95,0,3-1,3-2.29,0-1.08-.82-1.92-2.27-2.21l-2.6-.53c-3-.61-4.9-2.53-4.9-5.34,0-3.32,3-5.84,6.5-5.84,4.53,0,6.27,2.73,6.69,4.84Z"/><path d="M56.47,10.29a3.18,3.18,0,0,0-3.4-2.63c-1.76,0-2.92,1.13-2.92,2.37,0,1,.66,1.84,2,2.1l2.61.5c3.39.66,5.21,2.87,5.21,5.5,0,2.87-2.4,5.76-6.74,5.76-4.95,0-7.13-3.18-7.42-5.84l3.37-.89a3.74,3.74,0,0,0,4.08,3.5c1.94,0,3-1,3-2.29,0-1.08-.81-1.92-2.26-2.21l-2.61-.53c-3-.61-4.89-2.53-4.89-5.34,0-3.32,3-5.84,6.5-5.84,4.52,0,6.26,2.73,6.68,4.84Z"/><path d="M76.76,4.45a9.4,9.4,0,0,1,9.6,9.73,9.59,9.59,0,1,1-19.18,0A9.4,9.4,0,0,1,76.76,4.45Zm0,15.92c2.89,0,5.84-2,5.84-6.21S79.65,8,76.76,8s-5.82,2-5.82,6.21S73.89,20.37,76.76,20.37Z"/><path d="M93.68,14.18a9.42,9.42,0,0,1,9.5-9.73c5.15,0,7.81,3.15,8.55,6.18l-3.42,1.08A4.88,4.88,0,0,0,103.18,8c-2.79,0-5.74,2-5.74,6.23a5.75,5.75,0,0,0,5.79,6.16,5.19,5.19,0,0,0,5.24-3.82l3.39,1a8.48,8.48,0,0,1-8.63,6.34A9.31,9.31,0,0,1,93.68,14.18Z"/><path d="M120.15,23.5V4.84h3.68V23.5Z"/><path d="M144.46,19.24h-7.58l-1.55,4.26h-3.84l7.16-18.66h4.21L150,23.5H146Zm-6.37-3.32h5.16l-2.58-7Z"/><path d="M192.43,19.24h-7.58L183.3,23.5h-3.84l7.16-18.66h4.21l7.1,18.66H194ZM193,.82a2.61,2.61,0,0,1-2.66,2.89,3.63,3.63,0,0,1-2-.63L188.22,3A2.63,2.63,0,0,0,187,2.45c-.53,0-.76.34-.76,1.13h-2.11V2.87A2.59,2.59,0,0,1,186.75,0a4,4,0,0,1,2,.6l.16.11a3.24,3.24,0,0,0,1.23.5.72.72,0,0,0,.77-.82V.08H193Zm-6.94,15.1h5.15l-2.58-7Z"/><path d="M213.17,4.45a9.4,9.4,0,0,1,9.6,9.73,9.59,9.59,0,1,1-19.18,0A9.4,9.4,0,0,1,213.17,4.45Zm0,15.92c2.89,0,5.84-2,5.84-6.21S216.06,8,213.17,8s-5.82,2-5.82,6.21S210.3,20.37,213.17,20.37Z"/><path d="M163.38,25.16l.84-1.32a9.28,9.28,0,0,1-8.6-9.66,9.42,9.42,0,0,1,9.5-9.73c5.16,0,7.82,3.15,8.55,6.18l-3.42,1.08A4.87,4.87,0,0,0,165.12,8c-2.79,0-5.74,2-5.74,6.23a5.75,5.75,0,0,0,5.79,6.16,5.18,5.18,0,0,0,5.24-3.82l3.39,1a8.3,8.3,0,0,1-7.39,6.26l-.61,1A2.35,2.35,0,0,1,168.36,27c0,1.22-.92,2.5-3.37,2.5a4.12,4.12,0,0,1-3.13-1.36L163,26.74a2.91,2.91,0,0,0,2,1c.63,0,1.08-.26,1.08-.74s-.37-.73-1-.73a2.07,2.07,0,0,0-.71.1Z"/><polygon points="627.17 117.49 678.09 117.49 690.82 104.76 678.09 92.03 627.17 92.03 614.44 104.76 627.17 117.49"/><polygon points="762.82 14.76 726.82 50.76 726.82 14.76 762.82 14.76"/><path d="M434.44,116.23c-2.05,7.46-9.21,19.44-27.18,19.44-12.82,0-24.82-7.7-28.59-21.37L360.4,132.57c9.21,16.35,26.69,26.19,46.86,26.19,32.15,0,45.89-21.92,49.25-36.24Z"/><path d="M259.76,156.58V52.94h65.63V74.72H282.86V94.46h38.59v20.32H282.86v19.88h42.68v21.92Z"/><path d="M521.72,115.8l-11.7,13v27.77H486.93V52.94H510V96.5l37.87-43.56h30.4L537.94,97.82l40.5,58.76h-28.8Z"/><path d="M407,73.27c18.27,0,24.85,12.13,26.46,19.29l21.77-6.87c-3.36-14.91-17.1-34.93-48.23-34.93-19.62,0-37.22,10.1-46.52,26.67l18.11,18.11C382.34,80.32,395.28,73.27,407,73.27Z"/><polygon points="357.09 84.63 351.99 79.53 351.99 130.44 357.06 125.37 377.44 104.98 357.09 84.63"/><path d="M199.53,156.58V115.36H158.16v41.22H135.07V52.94h23.09V93.58h41.37V52.94h23.24V156.58Z"/><path d="M55,73.27c18.27,0,24.84,12.13,26.45,19.29l21.77-6.87C99.84,70.78,86.11,50.76,55,50.76c-19.63,0-37.23,10.1-46.53,26.67L26.56,95.54C30.36,80.32,43.29,73.27,55,73.27Z"/><path d="M82.45,116.23c-2,7.46-9.2,19.44-27.18,19.44-12.81,0-24.82-7.7-28.59-21.37L8.42,132.57c9.21,16.35,26.68,26.19,46.85,26.19,32.15,0,45.89-21.92,49.25-36.24Z"/><path d="M5.1,84.63,0,79.53v50.91l5.07-5.07L25.46,105ZM3.75,121.41a.29.29,0,0,0,0-.09V88.77c0-.06,0-.13,0-.19L20.18,105Z"/><polygon points="726.82 158.76 762.82 158.76 762.82 50.76 726.82 86.76 726.82 158.76"/><polygon points="798.82 86.76 798.82 158.76 834.82 122.76 798.82 86.76"/><polygon points="906.82 50.76 906.82 122.76 870.82 86.76 906.82 50.76"/><polygon points="824.28 50.76 798.82 50.76 798.82 76.22 881.37 158.76 906.82 158.76 906.82 133.31 824.28 50.76"/><path d="M0,194.22a8.84,8.84,0,0,1,8.92-9.14c4.84,0,7.34,3,8,5.8l-3.21,1a4.58,4.58,0,0,0-4.82-3.54c-2.62,0-5.39,1.88-5.39,5.86A5.4,5.4,0,0,0,9,200a4.87,4.87,0,0,0,4.92-3.58l3.18,1a8,8,0,0,1-8.1,6A8.75,8.75,0,0,1,0,194.22Z"/><path d="M32.64,185.08a9.13,9.13,0,0,1,0,18.26,9.13,9.13,0,0,1,0-18.26Zm0,14.95c2.71,0,5.48-1.88,5.48-5.84s-2.77-5.83-5.48-5.83-5.46,1.88-5.46,5.83S29.94,200,32.64,200Z"/><path d="M57.51,185.08a9.13,9.13,0,1,1-9,9.14A8.83,8.83,0,0,1,57.51,185.08Zm0,14.95c2.72,0,5.49-1.88,5.49-5.84s-2.77-5.83-5.49-5.83-5.46,1.88-5.46,5.83S54.82,200,57.51,200Z"/><path d="M77.84,196.37V203H74.43V185.45H81c3.46,0,5.76,2.29,5.76,5.46s-2.3,5.46-5.76,5.46Zm2.72-2.94a2.52,2.52,0,1,0,0-5H77.87v5Z"/><path d="M94.27,203V185.45h11v3.21H97.68v4h6.84v3H97.68v4.05h7.56V203Z"/><path d="M118.8,196.22H117V203h-3.43V185.45h6.84a5.26,5.26,0,0,1,5.59,5.38,5,5,0,0,1-3.74,5L126,203h-3.8Zm1-2.94c1.73,0,2.74-1,2.74-2.42s-1-2.45-2.74-2.45H117v4.87Z"/><path d="M144.35,199h-7.12l-1.46,4h-3.61l6.72-17.52h4L149.51,203H145.8Zm-6-3.11h4.84l-2.42-6.62Z"/><path d="M162.11,204.52l.79-1.23a8.71,8.71,0,0,1-8.08-9.07,8.83,8.83,0,0,1,8.92-9.14c4.84,0,7.34,3,8,5.8l-3.21,1a4.58,4.58,0,0,0-4.82-3.54c-2.62,0-5.39,1.88-5.39,5.86a5.4,5.4,0,0,0,5.44,5.78,4.86,4.86,0,0,0,4.91-3.58l3.19,1a7.82,7.82,0,0,1-6.94,5.88l-.57.89a2.21,2.21,0,0,1,2.4,2.13c0,1.13-.87,2.34-3.17,2.34a3.89,3.89,0,0,1-2.94-1.28l1.07-1.34a2.66,2.66,0,0,0,1.85.92c.59,0,1-.25,1-.69s-.34-.69-.94-.69a2.07,2.07,0,0,0-.66.09Z"/><path d="M208.85,185.08a9.13,9.13,0,1,1-9,9.14A8.83,8.83,0,0,1,208.85,185.08Zm0,14.95c2.71,0,5.48-1.88,5.48-5.84s-2.77-5.83-5.48-5.83-5.46,1.88-5.46,5.83S206.15,200,208.85,200Z"/><path d="M189.38,199h-7.12l-1.45,4H177.2l6.72-17.52h4L194.54,203h-3.7Zm.54-17.29a2.44,2.44,0,0,1-2.49,2.71,3.42,3.42,0,0,1-1.86-.59l-.14-.1a2.53,2.53,0,0,0-1.19-.49c-.49,0-.72.32-.72,1.06h-2v-.67A2.42,2.42,0,0,1,184,180.9a3.72,3.72,0,0,1,1.88.57l.15.1a3.07,3.07,0,0,0,1.16.47.68.68,0,0,0,.72-.77V181h2Zm-6.52,14.18h4.84l-2.42-6.62Z"/><path d="M236.81,203V185.45h11v3.21h-7.56v4h6.84v3h-6.84v4.05h7.56V203Z"/><path d="M267.17,203V185.45h6.27c5,0,8.65,3.23,8.65,8.77s-3.68,8.75-8.67,8.75Zm6.13-3.17c2.86,0,5.26-1.78,5.26-5.58s-2.37-5.61-5.24-5.61h-2.74V199.8Z"/><path d="M290,203V185.45h11v3.21H293.4v4h6.85v3H293.4v4.05H301V203Z"/><path d="M318,190.56a3,3,0,0,0-3.18-2.47,2.48,2.48,0,0,0-2.75,2.22c0,1,.62,1.73,1.91,2l2.44.47c3.19.62,4.9,2.69,4.9,5.16,0,2.7-2.25,5.42-6.33,5.42-4.65,0-6.7-3-7-5.49l3.16-.84A3.52,3.52,0,0,0,315,200.3c1.83,0,2.85-.92,2.85-2.15,0-1-.77-1.81-2.13-2.08l-2.44-.49c-2.8-.57-4.6-2.38-4.6-5,0-3.11,2.79-5.48,6.1-5.48,4.25,0,5.88,2.57,6.28,4.54Z"/><path d="M329.17,203V185.45h11v3.21h-7.56v4h6.85v3h-6.85v4.05h7.56V203Z"/><path d="M359.86,203l-8-12.43V203h-3.41V185.45h4.25L360,197V185.45h3.41V203Z"/><path d="M383.5,185.45h3.61L380.61,203H377.1l-6.47-17.52h3.73l4.57,13Z"/><path d="M401.63,185.08a9.13,9.13,0,1,1-9,9.14A8.83,8.83,0,0,1,401.63,185.08Zm0,14.95c2.72,0,5.49-1.88,5.49-5.84s-2.77-5.83-5.49-5.83-5.46,1.88-5.46,5.83S398.94,200,401.63,200Z"/><path d="M418.55,203V185.45H422V199.7h7.81V203Z"/><path d="M446.82,185.45h3.6L443.92,203h-3.5l-6.48-17.52h3.73l4.57,13Z"/><path d="M457.61,203V185.45h3.46V203Z"/><path d="M486.19,203V190.68l-5,12.29h-2.84l-5-12.19V203H470V185.45h4.5l5.26,12.65,5.14-12.65h4.64V203Z"/><path d="M498.49,203V185.45h11v3.21H501.9v4h6.85v3H501.9v4.05h7.56V203Z"/><path d="M529.18,203l-8-12.43V203h-3.41V185.45h4.25L529.35,197V185.45h3.41V203Z"/><path d="M549.06,188.68V203h-3.43V188.68h-5.54v-3.23H554.6v3.23Z"/><path d="M569.42,185.08a9.13,9.13,0,1,1-9,9.14A8.83,8.83,0,0,1,569.42,185.08Zm0,14.95c2.72,0,5.48-1.88,5.48-5.84s-2.76-5.83-5.48-5.83-5.46,1.88-5.46,5.83S566.72,200,569.42,200Z"/></g></svg>